HIERARCHY
ROOT hip
{
  OFFSET 0 0 0
  CHANNELS 6 Xposition Yposition Zposition Zrotation Yrotation Xrotation
  JOINT abdomen
  {
    OFFSET 0 20.6881 -0.73152
    CHANNELS 3 Zrotation Xrotation Yrotation
    JOINT chest
    {
      OFFSET 0 11.7043 -0.48768
      CHANNELS 3 Zrotation Xrotation Yrotation
      JOINT neck
      {
        OFFSET 0 22.1894 -2.19456
        CHANNELS 3 Zrotation Xrotation Yrotation
        JOINT head
        {
          OFFSET -0.24384 7.07133 1.2192
          CHANNELS 3 Zrotation Xrotation Yrotation
          JOINT leftEye
          {
            OFFSET 4.14528 8.04674 8.04672
            CHANNELS 3 Zrotation Xrotation Yrotation
            End Site
            {
              OFFSET 1 0 0
            }
          }
          JOINT rightEye
          {
            OFFSET -3.6576 8.04674 8.04672
            CHANNELS 3 Zrotation Xrotation Yrotation
            End Site
            {
              OFFSET 1 0 0
            }
          }
        }
      }
      JOINT rCollar
      {
        OFFSET -2.68224 19.2634 -4.8768
        CHANNELS 3 Zrotation Xrotation Yrotation
        JOINT rShldr
        {
          OFFSET -8.77824 -1.95073 1.46304
          CHANNELS 3 Zrotation Xrotation Yrotation
          JOINT rForeArm
          {
            OFFSET -28.1742 -1.7115 0.48768
            CHANNELS 3 Zrotation Xrotation Yrotation
            JOINT rHand
            {
              OFFSET -22.5879 0.773209 7.07136
              CHANNELS 3 Zrotation Xrotation Yrotation
              JOINT rThumb1
              {
                OFFSET -1.2192 -0.487915 3.41376
                CHANNELS 3 Zrotation Xrotation Yrotation
                JOINT rThumb2
                {
                  OFFSET -3.37035 -0.52449 3.41376
                  CHANNELS 3 Zrotation Xrotation Yrotation
                  End Site
                  {
                    OFFSET -1.78271 -1.18214 1.43049
                  }
                }
              }
              JOINT rIndex1
              {
                OFFSET -7.75947 0.938293 5.60832
                CHANNELS 3 Zrotation Xrotation Yrotation
                JOINT rIndex2
                {
                  OFFSET -2.54057 -0.884171 1.56538
                  CHANNELS 3 Zrotation Xrotation Yrotation
                  End Site
                  {
                    OFFSET -1.62519 -0.234802 1.16502
                  }
                }
              }
              JOINT rMid1
              {
                OFFSET -8.24714 1.18213 3.41376
                CHANNELS 3 Zrotation Xrotation Yrotation
                JOINT rMid2
                {
                  OFFSET -3.10165 -0.590103 1.0647
                  CHANNELS 3 Zrotation Xrotation Yrotation
                  End Site
                  {
                    OFFSET -2.48547 -0.328903 0.83742
                  }
                }
              }
              JOINT rRing1
              {
                OFFSET -8.82822 0.546677 1.51678
                CHANNELS 3 Zrotation Xrotation Yrotation
                JOINT rRing2
                {
                  OFFSET -2.60934 -0.819778 -0.0198488
                  CHANNELS 3 Zrotation Xrotation Yrotation
                  End Site
                  {
                    OFFSET -2.33842 -0.294052 0.168128
                  }
                }
              }
              JOINT rPinky1
              {
                OFFSET -8.27202 -0.0477905 -0.4584
                CHANNELS 3 Zrotation Xrotation Yrotation
                JOINT rPinky2
                {
                  OFFSET -1.82734 -0.647385 -0.700984
                  CHANNELS 3 Zrotation Xrotation Yrotation
                  End Site
                  {
                    OFFSET -1.69225 -0.51767 -0.607171
                  }
                }
              }
            }
          }
        }
      }
      JOINT lCollar
      {
        OFFSET 2.68224 19.2634 -4.8768
        CHANNELS 3 Zrotation Xrotation Yrotation
        JOINT lShldr
        {
          OFFSET 8.77824 -1.95073 1.46304
          CHANNELS 3 Zrotation Xrotation Yrotation
          JOINT lForeArm
          {
            OFFSET 28.1742 -1.7115 0.48768
            CHANNELS 3 Zrotation Xrotation Yrotation
            JOINT lHand
            {
              OFFSET 22.5879 0.773209 7.07136
              CHANNELS 3 Zrotation Xrotation Yrotation
              JOINT lThumb1
              {
                OFFSET 1.2192 -0.487915 3.41376
                CHANNELS 3 Zrotation Xrotation Yrotation
                JOINT lThumb2
                {
                  OFFSET 3.37035 -0.52449 3.41376
                  CHANNELS 3 Zrotation Xrotation Yrotation
                  End Site
                  {
                    OFFSET 1.78271 -1.18214 1.43049
                  }
                }
              }
              JOINT lIndex1
              {
                OFFSET 7.75947 0.938293 5.60832
                CHANNELS 3 Zrotation Xrotation Yrotation
                JOINT lIndex2
                {
                  OFFSET 2.54057 -0.884171 1.56538
                  CHANNELS 3 Zrotation Xrotation Yrotation
                  End Site
                  {
                    OFFSET 1.62519 -0.234802 1.16502
                  }
                }
              }
              JOINT lMid1
              {
                OFFSET 8.24714 1.18213 3.41376
                CHANNELS 3 Zrotation Xrotation Yrotation
                JOINT lMid2
                {
                  OFFSET 3.10165 -0.590103 1.0647
                  CHANNELS 3 Zrotation Xrotation Yrotation
                  End Site
                  {
                    OFFSET 2.48547 -0.328903 0.83742
                  }
                }
              }
              JOINT lRing1
              {
                OFFSET 8.82822 0.546677 1.51678
                CHANNELS 3 Zrotation Xrotation Yrotation
                JOINT lRing2
                {
                  OFFSET 2.60934 -0.819778 -0.0198488
                  CHANNELS 3 Zrotation Xrotation Yrotation
                  End Site
                  {
                    OFFSET 2.33842 -0.294052 0.168128
                  }
                }
              }
              JOINT lPinky1
              {
                OFFSET 8.27202 -0.0477905 -0.4584
                CHANNELS 3 Zrotation Xrotation Yrotation
                JOINT lPinky2
                {
                  OFFSET 1.82734 -0.647385 -0.700984
                  CHANNELS 3 Zrotation Xrotation Yrotation
                  End Site
                  {
                    OFFSET 1.69225 -0.51767 -0.607171
                  }
                }
              }
            }
          }
        }
      }
    }
  }
  JOINT rButtock
  {
    OFFSET -8.77824 4.35084 1.2192
    CHANNELS 3 Zrotation Xrotation Yrotation
    JOINT rThigh
    {
      OFFSET 0 -1.70687 -2.19456
      CHANNELS 3 Zrotation Xrotation Yrotation
      JOINT rShin
      {
        OFFSET 0 -36.8199 0.73152
        CHANNELS 3 Zrotation Xrotation Yrotation
        JOINT rFoot
        {
          OFFSET 0.73152 -45.1104 -5.12064
          CHANNELS 3 Zrotation Xrotation Yrotation
          End Site
          {
            OFFSET -1.1221 -3.69964 12.103
          }
        }
      }
    }
  }
  JOINT lButtock
  {
    OFFSET 8.77824 4.35084 1.2192
    CHANNELS 3 Zrotation Xrotation Yrotation
    JOINT lThigh
    {
      OFFSET 0 -1.70687 -2.19456
      CHANNELS 3 Zrotation Xrotation Yrotation
      JOINT lShin
      {
        OFFSET 0 -36.8199 0.73152
        CHANNELS 3 Zrotation Xrotation Yrotation
        JOINT lFoot
        {
          OFFSET -0.73152 -45.1104 -5.12064
          CHANNELS 3 Zrotation Xrotation Yrotation
          End Site
          {
            OFFSET 1.1221 -3.69964 12.103
          }
        }
      }
    }
  }
}
MOTION
Frames:	8
Frame Time:	0.03333
0.0 0.0 0.0 0.0 0.0 0.0 0.0 0.0 0.0 0.0 0.0 0.0 0.0 0.0 0.0 0.0 0.0 0.0 0.0 0.0 0.0 0.0 0.0 0.0 0.0 0.0 0.0 0.0 0.0 0.0 0.0 0.0 0.0 0.0 0.0 0.0 0.0 0.0 0.0 0.0 0.0 0.0 0.0 0.0 0.0 0.0 0.0 0.0 0.0 0.0 0.0 0.0 0.0 0.0 0.0 0.0 0.0 0.0 0.0 0.0 0.0 0.0 0.0 0.0 0.0 0.0 0.0 0.0 0.0 0.0 0.0 0.0 0.0 0.0 0.0 0.0 0.0 0.0 0.0 0.0 0.0 0.0 0.0 0.0 0.0 0.0 0.0 0.0 0.0 0.0 0.0 0.0 0.0 0.0 0.0 0.0 0.0 0.0 0.0 0.0 0.0 0.0 0.0 0.0 0.0 0.0 0.0 0.0 0.0 0.0 0.0 0.0 0.0 0.0 0.0 0.0 0.0 0.0 0.0 0.0 0.0 0.0 0.0 0.0 0.0 0.0 0.0 0.0 0.0 0.0 0.0 0.0
1.8036 63.3868 -1.6806 -169.335013 9.420094 -169.993539 12.711939 -3.557596 90.481337 -16.522255 -7.263291 -92.231277 8.979218 8.23586 98.526613 -26.638205 21.831487 -124.952038 -0.002091 0.0 -0.001581 0.002786 -0.0 -0.004093 3.191546 -25.838928 -5.074246 51.123853 -56.57329 60.254577 -178.567493 -31.475761 82.713009 159.803165 -32.921697 140.399068 82.304914 -50.136806 32.954971 -15.057359 -39.500632 -29.405397 2.324987 -3.867959 -1.260083 5.805488 8.705251 1.124558 -12.842571 28.997548 9.147927 -34.313776 55.156462 29.029048 -145.118294 0.186065 -179.185239 -151.84913 -28.049476 -174.713716 17.318939 60.660169 12.793192 -95.1601 -51.455435 -93.518305 157.880772 -65.637843 -175.444991 178.104839 -25.668467 159.514056 15.61158 -42.43126 -87.614729 20.519147 -66.932576 23.661758 176.598699 -14.213122 -89.689529 49.199668 -12.771165 -7.026886 -2.325385 -3.868209 1.257385 -90.998011 -60.660822 -38.518596 0.058258 0.167747 -0.032385 163.391373 -5.130936 -143.38824 0.000512 -0.061104 0.017426 -9.796241 6.860377 -0.828583 144.645578 10.417245 141.351758 -2.457501 0.291577 1.900239 8.1e-05 -0.000615 0.000121 -5.609321 -32.174762 -3.088337 39.5904 44.436107 24.642371 -166.294933 31.876078 79.860818 -179.998703 75.750257 -0.001067 -151.683536 20.270239 -0.0 -88.625106 81.9049 7.170113 19.698122 -23.609688 92.47263
2.1889 63.6174 -2.7582 -169.029044 8.002956 -170.36464 15.312401 -0.40254 0.763867 7.106828 -18.23982 0.851485 -10.059427 13.038257 -104.751632 32.768259 9.143304 67.586856 2.3e-05 0.0 0.001118 -0.000355 0.0 -0.002946 -0.009261 0.056113 0.012844 51.661989 -68.09865 60.405372 167.369476 -14.10721 80.865887 166.367974 -19.000861 144.469498 4.531779 -4.513735 -0.52042 -143.955724 -52.582585 123.548686 -27.608914 30.765896 20.255374 -154.74996 1.83799 109.910289 173.122579 -66.297632 137.614259 143.80041 -74.468534 112.186344 -145.124314 1.974315 -179.747093 -150.319491 78.819512 164.60133 -26.56691 -38.859496 -25.607763 -147.202333 13.605246 -143.822889 0.048904 0.292438 -0.064692 129.394073 -7.216508 -179.723998 -48.57402 11.621298 158.284856 73.825044 47.446824 -57.642292 -51.05968 -41.204331 -12.855976 143.835252 -11.530971 -121.079442 140.684809 1.506579 -116.184292 18.991408 40.242526 -7.152374 -1.280751 -3.803177 0.680121 164.0052 -6.974079 -143.568746 70.640929 72.966233 -88.425078 158.835325 -26.482488 -179.833686 -0.098739 0.25857 -0.089671 154.618279 38.152792 148.556212 -179.989343 75.749645 -0.008769 174.508071 45.266619 7.707797 31.825355 51.009019 -116.246734 -78.37586 -72.436269 7.488218 -179.996681 75.748679 -0.003425 -150.201839 13.49844 112.175942 94.477603 -23.924339 -0.127119 -94.368735 57.658329 -2.903389
2.2718 63.873400000000004 -3.9336 -169.002161 6.776789 -170.621477 13.552666 -2.053014 89.120675 -15.417033 -10.51749 -89.728012 8.563544 12.299492 123.532416 -21.119782 31.658263 -151.388583 0.000108 0.0 0.003394 0.00197 -0.0 -0.006226 -153.049843 10.023071 158.667088 -153.114196 -12.077593 -172.850174 -80.378066 21.525099 14.295348 43.724138 -59.907928 32.679057 -176.29648 -13.919303 89.7193 -145.659177 8.991293 76.136695 -140.764307 1.379999 116.227476 -164.648418 -18.269547 119.06199 7.904283 -24.807562 -3.014084 -5.960453 23.26209 5.044568 -0.007536 -0.831251 -0.261959 -155.993313 -12.557901 173.347322 -103.173896 -45.371317 -101.346611 -79.964068 -53.238877 -80.47491 0.048684 0.292494 -0.064345 -43.517563 13.889194 0.538588 111.138697 -42.813513 -93.340744 158.924841 -4.13934 -149.400213 89.136076 38.426411 -50.299112 157.339865 -33.116711 -80.310394 -60.461844 -70.523572 -15.709828 150.9923 -5.68472 -114.746312 -7.431737 -23.301226 2.92316 164.075396 -6.966095 -143.551131 77.743686 72.902667 -95.870195 155.93185 -47.03185 175.639903 4.129555 -9.745854 3.861544 -3.628871 2.693788 -0.801952 -0.0 -0.000246 -0.000616 -3.765573 -28.607408 9.320548 48.187679 35.595156 36.217002 164.077452 62.026361 108.019127 -179.912337 75.749876 -0.067567 -148.389101 11.035003 -6.035855 -65.409286 72.71209 32.007172 82.76442 31.035769 -1.390417
2.2381 64.2458 -5.1865000000000006 -169.185574 5.109936 -170.758155 14.441448 -1.739744 86.836775 -14.590714 -11.568582 -87.035538 -8.520191 14.610532 -117.400579 32.278624 16.292401 76.241553 0.000762 0.0 0.003632 -0.002145 -0.0 0.000102 -155.504476 -3.514427 161.838733 18.296887 13.506697 -4.342221 128.484201 69.768587 -72.521439 -17.44157 52.644757 7.260895 178.340358 -19.019042 88.989392 2.837673 -61.25686 3.707465 -138.094267 5.494646 114.614725 -89.064386 55.974448 68.272486 -0.570435 1.648516 0.321547 10.240684 -21.555954 -1.565027 -0.01434 -1.323174 -0.415744 -156.456079 -37.890197 176.360596 -134.693005 -14.10454 -132.113414 -39.313246 -47.9359 -40.509481 9.651237 34.83625 -11.199054 132.118684 -9.765566 -158.916641 -111.618022 -30.865116 114.006191 28.74083 6.321057 -8.570831 0.441436 0.435374 -0.069028 122.690036 -14.275131 -110.103886 161.901271 -36.242909 -122.688909 17.150407 42.24472 -8.587422 -6.533966 -20.414802 2.717597 -3.140796 0.042572 0.007519 0.007848 3.559165 -1.118705 148.489054 -76.768123 171.072036 132.783434 -17.596453 130.285775 20.760373 -36.973441 22.82826 179.998089 75.750035 0.001307 176.053646 48.747665 2.91725 35.039418 40.894942 15.657746 -65.934476 55.26051 -27.764179 -0.002401 0.001368 -0.0012 54.63156 -52.272851 48.748603 -48.538062 81.223817 144.169151 -26.859554 -77.936649 -115.717796
1.9751999999999998 64.8428 -6.4165 -169.372979 3.433974 -170.821706 15.30788 -2.060292 89.252214 -14.27295 -11.25966 -89.224019 9.225712 9.683338 108.723277 -25.317738 23.994218 -138.498497 0.004238 -0.0 -0.000441 -0.001227 -0.0 0.005307 -155.53776 -3.733472 161.884495 -156.988403 -28.809868 -174.563305 76.138888 86.101174 -159.181902 162.770355 -28.190087 141.977577 83.253508 -50.257896 33.616722 -14.90397 -41.220841 -29.999197 73.418024 -73.572499 26.562157 162.66128 -58.408326 95.095404 -125.643733 49.839742 115.273836 167.656495 -64.038525 132.624988 -0.059426 -3.510534 -1.102952 -23.080089 72.97142 36.392045 1.134887 3.0407 1.042678 3.595869 3.354468 1.007862 155.504216 -3.5144 -161.83888 10.563309 -47.183802 -20.067008 83.117625 -79.715848 -11.699951 19.375227 -63.543788 21.091752 12.305456 11.514795 -3.095768 -1.006138 0.294137 -6.788905 13.872323 18.814211 -9.292343 -15.897824 -9.575291 1.586456 -173.120929 -66.297582 -137.610906 -167.328267 -63.981067 -132.650087 0.015015 -1.323139 0.41595 156.064029 -15.154344 -173.648691 139.225375 -4.396976 136.390469 155.105547 36.396354 145.993449 0.00016 0.000824 -0.000205 -2.063796 -24.956648 -4.881567 36.687275 50.779605 121.327242 145.021977 1.184022 179.101935 -0.002187 -0.000163 -0.002187 54.607617 -55.875249 -180.0 73.643208 -33.328336 -12.18635 -153.614771 16.507274 48.853607
1.5722 65.5855 -7.5520000000000005 -169.769855 2.040124 -170.927525 20.751495 -2.90975 -102.519969 11.072686 9.34581 104.069732 -11.204621 8.830348 -82.528152 29.445011 1.263726 44.202869 0.003179 -0.0 -0.00036 -0.001802 -0.0 0.001061 4.208599 -43.443113 -8.384212 11.642776 17.280473 20.24493 11.913502 -35.801846 54.257372 -11.197273 40.963366 3.573575 -94.791685 37.82828 54.283675 31.938509 -33.686301 23.428249 -152.811298 -19.873233 121.573503 132.833986 -69.583023 75.928997 78.536931 -80.91932 49.689025 -170.377115 -25.69568 144.099987 -0.000919 0.022451 0.00825 7.447358 26.544604 4.021065 -99.586572 -46.84006 -97.807741 -24.193752 -40.713808 -26.262036 129.70581 55.101805 -133.552265 -71.640223 -45.471191 -73.49437 -178.549196 -3.700252 -46.030306 131.386013 38.202038 -117.859435 -71.831766 -48.263318 -25.791395 150.391704 -11.233259 -120.704163 33.796683 34.48679 -25.492744 169.380811 -19.283512 -111.09654 -2.100461 -6.3053 1.082294 154.102372 20.057429 -138.721483 145.099547 -1.521697 178.649164 23.851941 -71.889112 45.215943 75.776968 -51.66566 74.250577 159.879628 55.881808 148.5188 -179.99201 75.748156 -0.005466 177.536168 50.570179 -176.811501 -21.682903 -45.248733 105.001968 -92.60994 -34.972703 1.11857 -179.827693 75.749879 -0.132806 -155.407566 8.724014 108.33534 65.864179 -14.216755 -1.50882 169.804464 -56.999895 66.866491
1.2312999999999998 66.108 -8.546 -170.441574 1.220949 -171.099421 18.571606 -0.186797 0.86489 9.155125 -14.717552 3.541369 8.309612 6.955664 95.763301 -25.649811 14.810705 -129.576225 -0.000706 -0.0 0.001554 0.004293 0.0 0.00041 -9.651083 34.836249 11.199127 54.291329 -67.009484 50.066726 -7.263718 -19.336244 42.07793 -4.362933 22.878918 1.402462 -78.030978 38.689747 42.412265 11.829444 -19.822925 21.790796 -46.208982 39.65371 36.316988 -175.136147 -26.852524 110.830512 6.53229 -20.414996 -2.719852 -154.144555 20.059848 138.704716 0.002541 0.063693 0.020088 10.326057 -0.058102 -0.073657 -153.203792 41.295766 -148.284034 -94.545682 -50.242169 -93.133858 -1.671223 -11.458769 2.378541 -44.322449 12.496849 9.452157 -177.190141 -49.369128 -42.185566 132.727345 37.213948 -119.332371 103.198851 36.330619 -60.111658 -143.264663 -47.97925 -66.021521 162.637116 -37.465645 -122.648396 -2.518887 19.958091 5.070588 0.219873 0.638308 -0.123892 -168.045379 -64.094578 -133.248238 145.11743 0.185383 179.186786 6.948599 -61.109895 27.911239 140.596352 -1.003609 137.667887 173.510912 72.993803 141.479204 179.989887 75.748789 0.008321 176.749402 52.032793 180.0 -19.335875 -42.199702 149.039631 61.797589 -36.984481 -3.093394 -179.991097 75.749565 -0.006091 -156.605423 12.349979 -126.343053 -37.378734 -38.746823 64.050805 50.781969 -71.879285 127.354703
